<svg version="1" xmlns="http://www.w3.org/2000/svg" width="11112" height="11112" viewBox="0 0 8334.000000 8334.000000"><path d="M3093.9.4c-.2.2-4.4.6-9.4 1-9.9.7-27.9 2.7-36 4.1-1.6.2-4.8.7-7 1.1-34 5-82.9 19-115 32.7-4.4 1.8-10.5 4.4-13.5 5.7-9.9 4.2-41.3 20.5-52 27-21.9 13.3-46.6 30.3-60.6 41.9-1.7 1.4-5.3 4.4-8 6.6-19.6 16-45.4 41.8-65.4 65.1-3.2 3.6-22.7 28.8-25.9 33.4-34.9 49.1-61.4 105-77.5 163-1.9 6.9-3.7 13.8-4 15.5-.3 1.6-1.2 5.7-2 9-1.6 6.3-5.9 29.5-7.1 38-.4 2.7-.8 5.7-1 6.5-.1.8-.5 4.6-.9 8.5-.4 3.8-.9 8.1-1.1 9.4-.2 1.3-.8 7.1-1.2 13-1.1 14-1 7356.4 0 7370.6.5 6 1 12.1 1.2 13.5.7 5.4 1.5 11.7 2 16.5.3 2.7.8 5.7 1 6.5.2.8.7 3.5 1 6 1 7.3 1.5 9.9 4.1 22.7 20.2 98.6 69.2 189.9 140.3 261.2 14.8 14.9 19.4 19.3 30.8 29.2 12.8 11.2 40.5 31.9 56.3 42.1 24 15.5 55.6 32.3 77.5 41.3 1.7.7 5 2.2 7.5 3.3 26.4 11.7 82.3 27.6 112 31.7 2.5.3 5.2.8 6 1 3.5 1 37.6 4.6 50 5.2 23.4 1.2 59.5.7 76.5-1.1 1.7-.2 6.2-.6 10-1 3.9-.4 8.1-.9 9.5-1.1 1.4-.2 6.1-.9 10.5-1.5 89.6-12.7 178.2-51.5 250-109.4 16.7-13.5 23.3-19.4 41.1-37.1 20.7-20.4 41-44.1 54.9-64 2.7-3.9 5.2-7.2 5.5-7.5.3-.3 3.8-5.5 7.7-11.5 28.3-43.8 48.1-86 62.6-133.5 9.3-30.3 16.7-65.6 19.2-92 .3-3 .8-6.9 1-8.5.2-1.7.7-7.3 1.2-12.5 1-12 1.1-7356 0-7369.5-3.9-51.7-14.9-101.1-33.7-150-2.3-6.1-5.1-13-6.2-15.5-21.3-48.2-39.8-79.1-74.2-123.5-1.7-2.2-3.3-4.2-3.6-4.5-.3-.3-4.6-5.2-9.6-11-9-10.3-28.3-30.2-40-41-47.8-44.4-110.7-82.8-172.4-105.3-9.8-3.6-30.1-10.4-33.6-11.2-1-.3-7.9-2.1-15.2-4-23.4-6.2-58.1-12.4-78.2-14.1-4.1-.3-8.8-.8-10.5-1.1-3.5-.6-74-1.5-74.6-.9zM1016.9 2083.4c-.2.2-5.6.7-11.9 1-6.3.4-12.6.9-14 1.1-1.4.2-4.5.6-7 .9-2.5.3-6.7.8-9.5 1.1-2.7.4-7.9 1.1-11.5 1.7-3.6.5-7.6 1.1-9 1.3-1.4.2-8.4 1.5-15.5 3-113.4 23.2-214.7 82.7-291.1 171-40.7 47.1-74 104.2-95.3 163.7-11.7 32.6-22.1 74.7-25.6 103.7-.3 2.3-.7 5.5-.9 7-.3 1.4-.7 5.5-1.1 9.1-.3 3.6-.8 7.8-1 9.5-.2 1.6-.7 10.2-1.1 19-1 20.4-1 3161.2-.1 3180 .8 14.5 1.1 18.5 2.1 27 .3 2.7.8 7.3 1.1 10.1.3 2.8.8 6.1 1 7.4.2 1.3.7 4.6 1 7.4 3 26.1 16.5 76.6 28.9 108.5 17 43.2 40.4 86.1 65.5 119.8 2.5 3.4 5.5 7.4 6.6 8.9 14.9 20.5 52.9 60.6 76.5 80.5 67.8 57.3 146.8 95.9 232 113.4 6.9 1.4 14.1 2.8 16 3.1 1.9.2 7.3 1.1 12 1.9 4.7.7 11 1.7 14 2 3 .3 7.1.8 9 1 23.7 2.8 90.8 2.8 108 .1 1.4-.3 5.2-.7 8.5-1 6.2-.7 7.4-.8 19-2.5 13-1.9 41.2-7.9 54.7-11.6 20.7-5.7 55.7-17.7 68.3-23.5 1.1-.5 4.3-1.9 7-3.1 20.2-8.8 48.7-24.1 67.6-36.2 13.5-8.6 38.6-26.2 40.9-28.7.3-.3 2.1-1.7 4.2-3.2 2-1.5 4.2-3.3 5-4 .7-.7 3.6-3.1 6.3-5.3 6.7-5.3 25.2-22.3 34.9-32.1 57.5-57.9 101.2-129.6 126.1-206.8 4.8-14.6 12.7-44.3 14.1-52.6.3-1.4 1.2-5.8 2-9.9 2-9.9 5.1-30.9 5.9-39.6.4-3.9.8-8.1 1-9.4.2-1.2.8-7.8 1.2-14.5 1-15.6 1-3178.3 0-3193.6-.8-11.7-3-33.6-4.2-41-2.9-18.3-7.4-40.8-9.4-47.8-.5-1.8-1-3.3-1-3.5.3-2.8-11.3-40.1-17.3-56.2-9.1-24-17.6-42.6-33.4-72.5-3.7-6.9-21.9-35.5-29.6-46.3-17.9-25.2-34-44.1-58.2-68.2-67.4-67.2-150-113.7-242.6-136.4-23.8-5.9-52.3-10.8-74-12.6-4.1-.4-9.3-.9-11.5-1.1-4.8-.6-64.1-1.5-64.6-1zM7265.8 2083.5c-.2.2-5 .7-10.7 1-5.8.4-11.6.8-13 1-1.4.1-5.7.6-9.6 1-3.8.4-7.9.9-8.9 1.1-1.1.2-5.6.8-10 1.5-4.4.6-8.3 1.2-8.6 1.4-.3.1-2.7.6-5.5.9-24 3.2-71.1 16.9-103.2 30-22.9 9.4-41.4 18.4-63.3 30.8-2.5 1.4-25.2 15.1-50.5 30.3-25.3 15.2-47.6 28.6-49.5 29.7-1.9 1.2-4.8 2.9-6.5 3.9-1.6 1-4.6 2.8-6.5 3.9-1.9 1.1-4.8 2.9-6.5 3.9-1.6 1-26.2 15.6-54.5 32.6-28.3 16.9-53.1 31.8-55 33-1.9 1.2-4.8 3-6.5 4.1-1.6 1-3.9 2.4-5 3-1.1.6-40.9 24.4-88.4 53-47.5 28.5-88.3 53-90.5 54.3-2.3 1.3-5.4 3.2-7.1 4.2-1.6 1-4.7 2.9-6.9 4.1-2.1 1.3-4.6 2.7-5.5 3.3-1.9 1.2-36.9 22.3-39.1 23.5-.8.5-5.8 3.5-11 6.7s-11.1 6.7-13.1 7.8c-2 1.1-53.4 31.9-114.3 68.5-60.8 36.6-111.4 66.9-112.4 67.5-.9.5-16.6 9.9-34.7 20.8-18.2 10.9-33.7 20.2-34.5 20.7-.8.5-5.9 3.6-11.4 6.9-5.4 3.4-9.9 6.1-10.1 6.1-.1 0-7.3 4.3-16 9.5s-16.1 9.5-16.3 9.5c-.3 0-1.3.6-2.1 1.4-.9.8-2.7 2.1-4.1 2.8-1.4.7-24.1 14.3-50.5 30.1-26.4 15.9-48.7 29.3-49.5 29.7-.8.5-5.8 3.5-11 6.7s-11.1 6.7-13.1 7.8c-1.9 1.1-17.4 10.3-34.3 20.5-16.8 10.2-31.4 18.9-32.4 19.5-1 .5-37 22.1-80 48l-80 48c-1 .5-30.2 18.1-65 39-34.7 20.9-64 38.4-65 39-1 .5-79.7 47.8-175 105s-174.6 104.8-176.1 105.7c-1.6.9-29 17.3-60.8 36.4-31.8 19.1-58.7 35.2-59.8 35.8-1.1.6-3.4 2-5 3.2-1.7 1.2-3.5 2.3-4.1 2.5-.5.2-22.6 13.4-49 29.2-26.3 15.9-48.6 29.3-49.4 29.7-.8.5-5.8 3.5-11 6.7s-11.1 6.7-13.1 7.8c-1.9 1.1-17.4 10.3-34.3 20.5-16.8 10.2-31.4 18.9-32.4 19.5-1 .5-16.6 9.9-34.7 20.8-18.2 10.9-33.7 20.2-34.5 20.7-.8.5-5.9 3.6-11.4 6.9-5.4 3.4-9.9 6.1-10.1 6.1-.1 0-7.3 4.3-16 9.5s-16.1 9.5-16.3 9.5c-.3 0-1.3.6-2.1 1.4-.9.8-3.2 2.3-5.1 3.3-1.9 1.1-46.9 28-99.9 59.9-53 31.8-98.3 59-100.5 60.3-2.3 1.3-5.4 3.2-7.1 4.2-1.6 1-4.7 2.9-6.9 4.1-2.1 1.3-4.6 2.7-5.5 3.3-2 1.2-37.1 22.3-39.1 23.5-.8.5-5.3 3.2-10 6.1-4.7 2.8-9.9 5.9-11.6 6.9-2.3 1.4-154.6 92.7-166.6 99.9-1.4.9-5.7 3.4-9.5 5.5-13.3 7.6-38.9 24-50.8 32.4-11.4 8.1-33.4 25.4-38 29.7-1.2 1.1-5.5 5-9.6 8.6-38.6 34.4-75.6 80.2-102.4 126.9-7.2 12.5-21.4 40.6-25.9 51.1-21.1 49.6-35.6 104.3-40.2 150.9-.3 3.6-.8 7.6-1 9-1.8 11.3-2.4 58.5-1.1 80.5 5.4 91.5 35.2 180.4 86 256.5 11.7 17.5 30.5 42.4 38.2 50.6.5.6 3.9 4.4 7.4 8.5 8.1 9.3 31 32.2 41.7 41.7 25.2 22.5 53.1 42.7 85.4 61.9 7.4 4.4 71.6 42.9 142.5 85.4 71 42.6 129.8 77.8 130.8 78.4 1 .5 61 36.5 133.4 80 72.3 43.4 133 79.9 134.9 81 1.9 1.1 22.2 13.2 45 27 22.9 13.7 43.1 25.9 45 27 1.9 1.1 17.6 10.5 35 21 17.4 10.4 33.2 19.9 35 21 1.9 1.1 94.2 56.4 205 123 110.9 66.5 203.1 121.9 205 123 1.9 1.1 28.9 17.3 60 36s58.1 34.9 60 36c1.9 1.1 37.9 22.7 80 48 42.2 25.3 78.1 46.9 80 48 1.8 1.1 10.9 6.5 20 12 9.2 5.5 18.2 10.9 20 12 1.9 1.1 17.6 10.5 35 21 17.4 10.4 33.2 19.9 35 21 1.9 1.1 31.1 18.6 65 39 33.9 20.3 63.1 37.9 65 39 1.9 1.1 28.9 17.3 60 36 31.2 18.7 58.2 34.9 60 36 1.9 1.1 28.9 17.3 60 36s58.1 34.9 60 36c1.9 1.1 19.9 11.9 40 24 20.2 12.1 38.2 22.9 40 24 1.9 1.1 44.7 26.7 95 57 50.4 30.2 93.1 55.9 95 57 1.9 1.1 31.1 18.6 65 39 33.9 20.3 63.1 37.9 65 39 1.9 1.1 19.9 11.9 40 24 20.2 12.1 38.2 22.9 40 24 1.9 1.1 46.9 28.1 100 60s98.1 58.9 100 60c1.9 1.1 15.9 9.5 31.2 18.7 48 28.9 78.7 43.4 121.1 57.4 13.1 4.4 42.1 12.2 53.1 14.3 15.2 3 23.9 4.6 30 5.5 1.9.2 6.9.9 11 1.5 20.1 2.9 33.8 3.6 67 3.6 27.7 0 47-.7 55-1.9 1.4-.3 5.2-.7 8.5-1.1 8.1-.9 23-3.2 39-6.1 24.3-4.4 62.4-15.7 89.7-26.4 23.1-9.2 59.9-27.1 70-34.1 1.4-1.1 2.9-1.9 3.2-1.9 2.3 0 51-33.2 57.6-39.3 1.4-1.2 4.3-3.6 6.5-5.2 2.1-1.7 4.7-3.7 5.5-4.5.9-.8 3.2-2.8 5.1-4.4 35.2-30 70.4-70 96-109.1 14.4-22 33.1-56.2 41.3-75.5 1.5-3.6 3.4-7.9 4.1-9.5 4.6-10.2 13.4-35.3 19.5-54.8 2.5-8.2 9.4-36.8 10.9-45.2.6-3.3 1.3-7.1 1.6-8.5.3-1.4 1.2-7 2-12.5.9-5.5 1.8-11.4 2-13 4.2-26.6 5.2-86.3 2-117-1.8-16.9-1.7-15.9-4.6-34.5-8.9-57-29.8-117.4-58.4-168.5-19.3-34.6-44.3-69.6-68.4-96-6.2-6.7-32.4-32.9-38.6-38.6-29.6-26.9-54.1-44-113.5-79.4-14.6-8.6-28.1-16.8-30-18-2.6-1.7-68.3-41-89.2-53.4-11.6-6.9-27.9-16.7-30.8-18.6-1.9-1.2-46.9-28.2-100-60-53.1-31.7-98.1-58.7-100-60-1.9-1.2-38.7-23.3-81.8-49.1-43-25.8-91.8-55.1-108.5-65.1-16.6-10-31.3-18.8-32.7-19.6-3.8-2.1-133-79.6-137-82.2-3.4-2.2-98-59-101.7-61l-40-24c-21-12.7-39-23.5-40-24-1.9-1.1-211.4-126.9-228.5-137.2-5.7-3.5-11-6.6-11.8-7-.9-.5-54.7-32.8-119.7-71.8-65-39.1-119-71.5-120-72-2.8-1.5-14.4-8.5-18.3-11-1.9-1.2-28.9-17.4-60-36-31.1-18.5-58.1-34.7-60-36-2.7-1.7-38.5-23.2-50.2-30-.9-.6-12.5-7.5-25.8-15.5-13.2-8-24.8-15-25.8-15.5-.9-.6-18.9-11.4-39.9-24-21.1-12.7-39.5-23.7-41-24.6-16-9.4-132-79.2-132.6-79.8-.4-.4 8.6-6.4 20-13.2 11.4-6.7 21.9-13.1 23.3-14 2.1-1.4 49.8-30 55.7-33.4 1-.6 2.9-1.7 4.3-2.6 1.4-.9 72.6-43.6 158.2-95 85.7-51.4 157-94.2 158.5-95.1 1.6-1 4.2-2.5 5.8-3.4 1.7-.9 6.8-4 11.5-6.9 4.7-2.9 20.1-12.1 34.3-20.6 14.2-8.5 27-16.2 28.5-17.1 1.5-1 4.5-2.7 6.7-3.9 2.2-1.2 5.8-3.3 8-4.7 8-5.1 19.5-12.1 25-15.2 4.8-2.7 138.7-83 142-85.1 3.2-2.1 127.8-76.9 133-79.9 5.7-3.3 24-14.2 27.5-16.4 4.2-2.7 13.3-8.2 17.5-10.6 1.7-.9 16.3-9.7 32.5-19.5s32-19.2 35-21c9.7-5.6 51.4-30.6 55-33 3.1-2 142.9-85.9 151.9-91.1 8.6-5.1 84.9-50.8 88.1-52.9 1.9-1.2 41.3-24.9 87.5-52.5 46.2-27.7 86.7-52 90-54 3.3-2.1 17.6-10.6 31.8-19.1 14.2-8.5 27-16.2 28.5-17.1 1.5-1 3.9-2.4 5.3-3.2 3.5-2 390.6-234.1 394.4-236.5 7.2-4.5 29.7-19.1 30.8-20.1.6-.5 6.2-4.6 12.2-9.2 11.2-8.3 25.1-19.6 31.5-25.4 1.9-1.8 4.9-4.5 6.5-6 13.4-11.9 36-35.4 48.5-50.3 46.4-55.4 81.3-121.1 101.9-191.6 1.1-3.9 2.2-8.1 2.5-9.5.3-1.4 1.2-5 2-8 5.2-18.8 11.5-55.7 13.2-77.4.2-3.4.8-10.2 1.1-15.1 1.4-17.9.6-71-1.1-81.5-.3-1.4-.7-5.7-1.1-9.5-1.3-14.4-4.7-35.5-8.6-53-1.1-5-2.2-10.3-2.5-11.9-.3-1.6-2.4-9.3-4.6-17-21.7-77.1-58.4-144.7-111.2-205.1-8.3-9.5-35.2-36.4-45.6-45.6-17.7-15.7-42.8-34.8-60-45.8-4.7-3-9.6-6.2-11-7.1-1.4-.9-8-4.9-14.8-8.8-18.2-10.6-35.7-19.1-62.7-30.8-25-10.7-76.4-25.7-102-29.7-1.6-.3-5.7-1-9-1.6-3.3-.6-7.7-1.3-9.7-1.5-2.1-.3-5.3-.7-7-1-5.8-1-10.1-1.4-19.3-2.1-4.9-.4-10.1-.9-11.5-1.2-2.9-.6-64.6-1.3-65.2-.8z"/></svg>